{
  "source": "C:\\Users\\Peter\\Desktop\\stuff\\MIUN\\quantitative_research\\video_compression\\videos\\BVI-HD\\BVI-HD_CDVL_videos\\ORIG\\Diver_1920x1080_30fps.mp4",
  "output": "C:\\Users\\Peter\\Desktop\\stuff\\MIUN\\quantitative_research\\video_compression\\compressed_videos\\BVI-HD\\h264\\1.5\\Diver_1920x1080_30fps_h264.mp4",
  "codec": "h264",
  "ok": "Input #0, mov,mp4,m4a,3gp,3g2,mj2, from 'C:\\Users\\Peter\\Desktop\\stuff\\MIUN\\quantitative_research\\video_compression\\videos\\BVI-HD\\BVI-HD_CDVL_videos\\ORIG\\Diver_1920x1080_30fps.mp4':\n  Metadata:\n    major_brand     : isom\n    minor_version   : 512\n    compatible_brands: isomiso2avc1mp41\n    encoder         : Lavf54.28.101\n  Duration: 00:00:05.00, start: 0.000000, bitrate: 196798 kb/s\n  Stream #0:0[0x1](und): Video: h264 (High 4:4:4 Predictive) (avc1 / 0x31637661), yuv420p(progressive), 1920x1080, 196794 kb/s, 30 fps, 30 tbr, 30 tbn (default)\n    Metadata:\n      handler_name    : VideoHandler\n      vendor_id       : [0][0][0][0]\n[out#0/mp4 @ 00000270d1b79b40] Codec AVOption b:a (set bitrate (in bits/s)) has not been used for any stream. The most likely reason is either wrong type (e.g. a video option with no video streams) or that it is a private option of some decoder which was not actually used for any stream.\nStream mapping:\n  Stream #0:0 -> #0:0 (h264 (native) -> h264 (libx264))\nPress [q] to stop, [?] for help\n[libx264 @ 00000270d1b7cb40] using cpu capabilities: MMX2 SSE2Fast SSSE3 SSE4.2 AVX FMA3 BMI2 AVX2\n[libx264 @ 00000270d1b7cb40] profile High, level 5.0, 4:2:0, 8-bit\n[libx264 @ 00000270d1b7cb40] 264 - core 165 r3222 b35605a - H.264/MPEG-4 AVC codec - Copyleft 2003-2025 - http://www.videolan.org/x264.html - options: cabac=1 ref=5 deblock=1:0:0 analyse=0x3:0x113 me=hex subme=8 psy=1 psy_rd=1.00:0.00 mixed_ref=1 me_range=16 chroma_me=1 trellis=2 8x8dct=1 cqm=0 deadzone=21,11 fast_pskip=1 chroma_qp_offset=-2 threads=18 lookahead_threads=3 sliced_threads=0 nr=0 decimate=1 interlaced=0 bluray_compat=0 constrained_intra=0 bframes=3 b_pyramid=2 b_adapt=1 b_bias=0 direct=3 weightb=1 open_gop=0 weightp=2 keyint=250 keyint_min=25 scenecut=40 intra_refresh=0 rc_lookahead=50 rc=cbr mbtree=1 bitrate=1500 ratetol=1.0 qcomp=0.60 qpmin=0 qpmax=69 qpstep=4 vbv_maxrate=1500 vbv_bufsize=1500 nal_hrd=none filler=0 ip_ratio=1.40 aq=1:1.00\nOutput #0, mp4, to 'C:\\Users\\Peter\\Desktop\\stuff\\MIUN\\quantitative_research\\video_compression\\compressed_videos\\BVI-HD\\h264\\1.5\\Diver_1920x1080_30fps_h264.mp4':\n  Metadata:\n    major_brand     : isom\n    minor_version   : 512\n    compatible_brands: isomiso2avc1mp41\n    encoder         : Lavf62.3.100\n  Stream #0:0(und): Video: h264 (avc1 / 0x31637661), yuv420p(tv, progressive), 1920x1080, q=2-31, 1500 kb/s, 30 fps, 15360 tbn (default)\n    Metadata:\n      encoder         : Lavc62.11.100 libx264\n      handler_name    : VideoHandler\n      vendor_id       : [0][0][0][0]\n    Side data:\n      cpb: bitrate max/min/avg: 1500000/0/1500000 buffer size: 1500000 vbv_delay: N/A\nframe=    0 fps=0.0 q=0.0 size=       0KiB time=N/A bitrate=N/A speed=N/A elapsed=0:00:00.50    \nframe=    0 fps=0.0 q=0.0 size=       0KiB time=N/A bitrate=N/A speed=N/A elapsed=0:00:01.06    \nframe=    0 fps=0.0 q=0.0 size=       0KiB time=N/A bitrate=N/A speed=N/A elapsed=0:00:01.61    \nframe=   12 fps=5.6 q=36.0 size=       0KiB time=00:00:00.33 bitrate=   1.2kbits/s speed=0.156x elapsed=0:00:02.13    \nframe=   40 fps= 15 q=35.0 size=       0KiB time=00:00:01.13 bitrate=   0.3kbits/s speed=0.419x elapsed=0:00:02.70    \nframe=   64 fps= 19 q=36.0 size=       0KiB time=00:00:02.06 bitrate=   0.2kbits/s speed=0.627x elapsed=0:00:03.29    \nframe=   97 fps= 25 q=36.0 size=     256KiB time=00:00:03.16 bitrate= 662.4kbits/s speed=0.825x elapsed=0:00:03.83    \nframe=  121 fps= 28 q=36.0 size=     512KiB time=00:00:03.96 bitrate=1057.5kbits/s speed=0.911x elapsed=0:00:04.35    \nframe=  145 fps= 30 q=-1.0 size=     512KiB time=00:00:04.76 bitrate= 880.0kbits/s speed=0.976x elapsed=0:00:04.88    \n[mp4 @ 00000270d1b814c0] Starting second pass: moving the moov atom to the beginning of the file\n[out#0/mp4 @ 00000270d1b79b40] video:799KiB audio:0KiB subtitle:0KiB other streams:0KiB global headers:0KiB muxing overhead: 0.324819%\nframe=  150 fps= 30 q=-1.0 Lsize=     802KiB time=00:00:04.93 bitrate=1331.8kbits/s speed=0.997x elapsed=0:00:04.94    \n[libx264 @ 00000270d1b7cb40] frame I:1     Avg QP:32.98  size:  8781\n[libx264 @ 00000270d1b7cb40] frame P:38    Avg QP:32.26  size:  9934\n[libx264 @ 00000270d1b7cb40] frame B:111   Avg QP:35.64  size:  3888\n[libx264 @ 00000270d1b7cb40] consecutive B-frames:  1.3%  0.0%  0.0% 98.7%\n[libx264 @ 00000270d1b7cb40] mb I  I16..4: 59.7% 39.8%  0.5%\n[libx264 @ 00000270d1b7cb40] mb P  I16..4:  5.0%  4.6%  0.1%  P16..4: 33.8%  2.1%  1.7%  0.0%  0.0%    skip:52.6%\n[libx264 @ 00000270d1b7cb40] mb B  I16..4:  0.1%  0.4%  0.0%  B16..8: 31.5%  1.0%  0.1%  direct: 0.3%  skip:66.6%  L0:38.9% L1:60.4% BI: 0.7%\n[libx264 @ 00000270d1b7cb40] 8x8 transform intra:48.6% inter:90.0%\n[libx264 @ 00000270d1b7cb40] direct mvs  spatial:91.0% temporal:9.0%\n[libx264 @ 00000270d1b7cb40] coded y,uvDC,uvAC intra: 18.2% 20.4% 0.4% inter: 2.0% 3.6% 0.0%\n[libx264 @ 00000270d1b7cb40] i16 v,h,dc,p: 14% 33%  8% 45%\n[libx264 @ 00000270d1b7cb40] i8 v,h,dc,ddl,ddr,vr,hd,vl,hu:  7% 11% 20%  7% 13%  9% 14%  7% 12%\n[libx264 @ 00000270d1b7cb40] i4 v,h,dc,ddl,ddr,vr,hd,vl,hu:  7%  7% 17%  6% 13% 11% 12%  8% 18%\n[libx264 @ 00000270d1b7cb40] i8c dc,h,v,p: 63% 31%  5%  1%\n[libx264 @ 00000270d1b7cb40] Weighted P-Frames: Y:7.9% UV:0.0%\n[libx264 @ 00000270d1b7cb40] ref P L0: 49.4%  8.9% 26.3%  7.4%  7.9%  0.1%\n[libx264 @ 00000270d1b7cb40] ref B L0: 80.4% 13.7%  4.8%  1.1%\n[libx264 @ 00000270d1b7cb40] ref B L1: 94.0%  6.0%\n[libx264 @ 00000270d1b7cb40] kb/s:1308.56\n",
  "seconds": 5.394036054611206,
  "probe_out": {}
}